# Blender v2.78 (sub 0) OBJ File: 'CHAHIN_CANNON.blend'
# www.blender.org
mtllib CHAHIN_CANNON.mtl
o CANNON_Cube.008
v 0.869797 3.293805 0.303165
v 0.869797 3.420013 0.303165
v -0.805055 3.293805 0.303165
v -0.805055 3.420013 0.303165
v 0.869797 3.293805 0.056757
v 0.869797 3.420013 0.056757
v -0.805055 3.293805 0.056757
v -0.805055 3.420013 0.056757
v 0.536644 3.181004 0.430291
v 0.536644 3.446884 0.430291
v 0.536644 3.181004 0.307641
v 0.536644 3.446884 0.307641
v 0.802524 3.181004 0.430291
v 0.802524 3.446884 0.430291
v 0.802524 3.181004 0.307641
v 0.802524 3.446884 0.307641
v 0.669584 3.129981 0.307641
v 0.669584 3.497907 0.307641
v 0.669584 3.129981 0.430291
v 0.669584 3.497907 0.430291
v 0.485621 3.313944 0.430291
v 0.485621 3.313944 0.307641
v 0.853547 3.313944 0.307641
v 0.853547 3.313944 0.430291
v 0.669584 3.313944 0.430291
v 0.669584 3.313944 0.307641
v -0.785759 3.181004 0.430291
v -0.785759 3.446884 0.430291
v -0.785759 3.181004 0.307641
v -0.785759 3.446884 0.307641
v -0.519879 3.181004 0.430291
v -0.519879 3.446884 0.430291
v -0.519879 3.181004 0.307641
v -0.519879 3.446884 0.307641
v -0.652819 3.129981 0.307641
v -0.652819 3.497907 0.307641
v -0.652819 3.129981 0.430291
v -0.652819 3.497907 0.430291
v -0.836782 3.313944 0.430291
v -0.836782 3.313944 0.307641
v -0.468856 3.313944 0.307641
v -0.468856 3.313944 0.430291
v -0.652819 3.313944 0.430291
v -0.652819 3.313944 0.307641
v 0.869797 3.293805 -0.437850
v 0.869797 3.420013 -0.437850
v -0.805055 3.293805 -0.437850
v -0.805055 3.420013 -0.437850
v 0.869797 3.293805 -0.191441
v 0.869797 3.420013 -0.191441
v -0.805055 3.293805 -0.191441
v -0.805055 3.420013 -0.191441
v 0.536644 3.181004 -0.564975
v 0.536644 3.446884 -0.564975
v 0.536644 3.181004 -0.442326
v 0.536644 3.446884 -0.442326
v 0.802524 3.181004 -0.564975
v 0.802524 3.446884 -0.564975
v 0.802524 3.181004 -0.442326
v 0.802524 3.446884 -0.442326
v 0.669584 3.129981 -0.442326
v 0.669584 3.497907 -0.442326
v 0.669584 3.129981 -0.564975
v 0.669584 3.497907 -0.564975
v 0.485621 3.313944 -0.564975
v 0.485621 3.313944 -0.442326
v 0.853547 3.313944 -0.442326
v 0.853547 3.313944 -0.564975
v 0.669584 3.313944 -0.564975
v 0.669584 3.313944 -0.442326
v -0.785759 3.181004 -0.564975
v -0.785759 3.446884 -0.564975
v -0.785759 3.181004 -0.442326
v -0.785759 3.446884 -0.442326
v -0.519879 3.181004 -0.564975
v -0.519879 3.446884 -0.564975
v -0.519879 3.181004 -0.442326
v -0.519879 3.446884 -0.442326
v -0.652819 3.129981 -0.442326
v -0.652819 3.497907 -0.442326
v -0.652819 3.129981 -0.564975
v -0.652819 3.497907 -0.564975
v -0.836782 3.313944 -0.564975
v -0.836782 3.313944 -0.442326
v -0.468856 3.313944 -0.442326
v -0.468856 3.313944 -0.564975
v -0.652819 3.313944 -0.564975
v -0.652819 3.313944 -0.442326
v -0.566281 3.382800 0.357797
v -0.566281 3.509008 0.357797
v -0.566281 3.382800 -0.492481
v -0.566281 3.509008 -0.492481
v -0.319872 3.382800 0.357797
v -0.319872 3.509008 0.357797
v -0.319872 3.382800 -0.492481
v -0.319872 3.509008 -0.492481
v 0.288027 3.382800 0.357797
v 0.288027 3.509008 0.357797
v 0.288027 3.382800 -0.492481
v 0.288027 3.509008 -0.492481
v 0.534436 3.382800 0.357797
v 0.534436 3.509008 0.357797
v 0.534436 3.382800 -0.492481
v 0.534436 3.509008 -0.492481
v -0.384770 3.531566 0.223160
v -0.384770 4.112570 0.223160
v -0.384770 3.531566 -0.357844
v -0.384770 4.112570 -0.357844
v 0.196234 3.531566 0.223160
v 0.196234 4.112570 0.223160
v 0.196234 3.531566 -0.357844
v 0.196234 4.112570 -0.357844
v 0.486369 3.975607 -0.220881
v 0.486369 3.668529 -0.220881
v 0.486369 3.668529 0.086197
v 0.486369 3.975607 0.086197
v 0.887516 4.083320 -0.328594
v 0.887516 3.560816 -0.328594
v 0.887516 3.560816 0.193910
v 0.887516 4.083320 0.193910
v 0.887516 3.989660 -0.234934
v 0.887516 3.654476 -0.234934
v 0.887516 3.654476 0.100250
v 0.887516 3.989660 0.100250
v -0.103890 3.937176 -0.182450
v -0.103890 3.706961 -0.182450
v -0.103890 3.706961 0.047765
v -0.103890 3.937176 0.047765
v -0.384770 3.439641 -0.067342
v -0.384770 4.204495 -0.067342
v 0.196234 3.439641 -0.067342
v 0.196234 4.204495 -0.067342
v 0.486369 3.619944 -0.067342
v 0.486369 4.024193 -0.067342
v 0.887516 3.478147 -0.067342
v 0.887516 4.165990 -0.067342
v 0.887516 3.601444 -0.067342
v 0.887516 4.042692 -0.067342
v -0.103890 3.670537 -0.067342
v -0.103890 3.973600 -0.067342
v -0.384770 3.822068 0.315085
v -0.384770 3.822068 -0.449769
v 0.196234 3.822068 -0.449769
v 0.196234 3.822068 0.315085
v 0.486369 3.822068 -0.269467
v 0.486369 3.822068 0.134782
v 0.887516 3.822068 -0.411264
v 0.887516 3.822068 0.276579
v 0.887516 3.822068 -0.287966
v 0.887516 3.822068 0.153282
v -0.103890 3.822068 -0.218874
v -0.103890 3.822068 0.084189
v -0.634330 3.649907 -0.067342
v -0.634330 3.691290 0.063436
v -0.634330 3.822068 0.104819
v -0.634330 3.952846 0.063436
v -0.634330 3.994229 -0.067342
v -0.634330 3.952846 -0.198120
v -0.634330 3.822068 -0.239503
v -0.634330 3.691290 -0.198120
v -0.634330 3.822068 -0.067342
v -0.482891 4.059004 -0.009899
v -0.541967 4.160512 -0.009899
v -0.482891 4.059004 -0.127347
v -0.541967 4.160512 -0.127347
v -0.381382 4.118081 -0.009899
v -0.440459 4.219589 -0.009899
v -0.381382 4.118081 -0.127347
v -0.440459 4.219589 -0.127347
v -0.513077 4.177326 -0.043325
v -0.513077 4.177326 -0.093921
v -0.469349 4.202775 -0.093921
v -0.469349 4.202775 -0.043325
v -0.584456 4.299971 -0.043325
v -0.584456 4.299971 -0.093921
v -0.540727 4.325421 -0.093921
v -0.540727 4.325421 -0.043325
vt 0.7490 0.3903
vt 0.7290 0.3903
vt 0.7290 0.0808
vt 0.7490 0.0808
vt 0.6727 0.4359
vt 0.6526 0.4359
vt 0.6526 0.3903
vt 0.6727 0.3903
vt 0.8092 0.3903
vt 0.7891 0.3903
vt 0.7891 0.0808
vt 0.8092 0.0808
vt 0.7691 0.4359
vt 0.7490 0.4359
vt 0.7490 0.3903
vt 0.7691 0.3903
vt 0.6507 0.3903
vt 0.6116 0.3903
vt 0.6116 0.0808
vt 0.6507 0.0808
vt 0.6899 0.3903
vt 0.6507 0.3903
vt 0.6507 0.0808
vt 0.6899 0.0808
vt 0.1302 0.3816
vt 0.1302 0.4264
vt 0.0915 0.4264
vt 0.0915 0.3816
vt 0.3239 0.1859
vt 0.3447 0.1318
vt 0.3781 0.1618
vt 0.3781 0.2067
vt 0.4246 0.3631
vt 0.4246 0.3964
vt 0.3859 0.3964
vt 0.3859 0.3631
vt 0.3239 0.0777
vt 0.3031 0.0236
vt 0.3481 0.0236
vt 0.3781 0.0569
vt 0.4556 0.0684
vt 0.4556 0.1018
vt 0.4169 0.1018
vt 0.4169 0.0684
vt 0.3084 0.3631
vt 0.3084 0.3964
vt 0.2697 0.3964
vt 0.2697 0.3631
vt 0.3084 0.3182
vt 0.2697 0.3182
vt 0.4556 0.0236
vt 0.4169 0.0236
vt 0.2697 0.0984
vt 0.2697 0.0536
vt 0.2697 0.1651
vt 0.2998 0.1318
vt 0.2697 0.2100
vt 0.3031 0.2400
vt 0.2998 0.1318
vt 0.3447 0.1318
vt 0.3781 0.1018
vt 0.4246 0.3182
vt 0.3859 0.3182
vt 0.3481 0.2400
vt 0.1302 0.3482
vt 0.0915 0.3482
vt 0.3859 0.2733
vt 0.3859 0.3182
vt 0.3471 0.3182
vt 0.3471 0.2733
vt 0.2154 0.1859
vt 0.1612 0.1651
vt 0.1913 0.1318
vt 0.2363 0.1318
vt 0.0915 0.3931
vt 0.0915 0.4264
vt 0.0527 0.4264
vt 0.0527 0.3931
vt 0.2154 0.0777
vt 0.1946 0.0236
vt 0.2396 0.0236
vt 0.2697 0.0569
vt 0.4169 0.1351
vt 0.4169 0.1018
vt 0.4556 0.1018
vt 0.4556 0.1351
vt 0.3084 0.2733
vt 0.3084 0.2400
vt 0.3471 0.2400
vt 0.3471 0.2733
vt 0.3084 0.3182
vt 0.3471 0.3182
vt 0.4169 0.1800
vt 0.4556 0.1800
vt 0.1612 0.0984
vt 0.1612 0.0536
vt 0.1946 0.2400
vt 0.1612 0.2100
vt 0.2396 0.2400
vt 0.2697 0.2067
vt 0.1913 0.1318
vt 0.2363 0.1318
vt 0.2697 0.1018
vt 0.0915 0.3482
vt 0.0527 0.3482
vt 0.2697 0.1618
vt 0.3859 0.2400
vt 0.3471 0.2400
vt 0.7891 0.0808
vt 0.7891 0.3903
vt 0.7691 0.3903
vt 0.7691 0.0808
vt 0.6927 0.3903
vt 0.6927 0.4359
vt 0.6727 0.4359
vt 0.6727 0.3903
vt 0.7691 0.0808
vt 0.7691 0.3903
vt 0.7490 0.3903
vt 0.7490 0.0808
vt 0.7128 0.3903
vt 0.7128 0.4359
vt 0.6927 0.4359
vt 0.6927 0.3903
vt 0.5724 0.3903
vt 0.5724 0.0808
vt 0.6116 0.0808
vt 0.6116 0.3903
vt 0.7290 0.0808
vt 0.7290 0.3903
vt 0.6899 0.3903
vt 0.6899 0.0808
vt 0.2077 0.3931
vt 0.1689 0.3931
vt 0.1689 0.3482
vt 0.2077 0.3482
vt 0.1070 0.0777
vt 0.1612 0.0984
vt 0.1311 0.1318
vt 0.0862 0.1318
vt 0.1302 0.3931
vt 0.1689 0.3931
vt 0.1689 0.4264
vt 0.1302 0.4264
vt 0.1070 0.1859
vt 0.1612 0.2067
vt 0.1311 0.2400
vt 0.0862 0.2400
vt 0.3781 0.1466
vt 0.4169 0.1466
vt 0.4169 0.1800
vt 0.3781 0.1800
vt 0.3471 0.3631
vt 0.3859 0.3631
vt 0.3859 0.3964
vt 0.3471 0.3964
vt 0.3471 0.3182
vt 0.3859 0.3182
vt 0.3781 0.1018
vt 0.4169 0.1018
vt 0.0527 0.1651
vt 0.0527 0.2100
vt 0.0527 0.0569
vt 0.0527 0.1018
vt 0.0828 0.0236
vt 0.1278 0.0236
vt 0.0828 0.1318
vt 0.1278 0.1318
vt 0.1612 0.1618
vt 0.1302 0.3482
vt 0.1689 0.3482
vt 0.1612 0.0536
vt 0.2077 0.4264
vt 0.1689 0.4264
vt 0.3859 0.2733
vt 0.4246 0.2733
vt 0.4246 0.3182
vt 0.3859 0.3182
vt 0.2154 0.2941
vt 0.2697 0.3149
vt 0.2396 0.3482
vt 0.1946 0.3482
vt 0.3084 0.3631
vt 0.3471 0.3631
vt 0.3471 0.3964
vt 0.3084 0.3964
vt 0.1070 0.2941
vt 0.0862 0.2400
vt 0.1311 0.2400
vt 0.1612 0.2733
vt 0.2697 0.2849
vt 0.3084 0.2849
vt 0.3084 0.3182
vt 0.2697 0.3182
vt 0.3781 0.0684
vt 0.4169 0.0684
vt 0.4169 0.1018
vt 0.3781 0.1018
vt 0.3781 0.0236
vt 0.4169 0.0236
vt 0.2697 0.2400
vt 0.3084 0.2400
vt 0.1278 0.3482
vt 0.1612 0.3182
vt 0.1612 0.2733
vt 0.1612 0.3182
vt 0.1913 0.2400
vt 0.2363 0.2400
vt 0.0828 0.3482
vt 0.0527 0.3149
vt 0.0527 0.2700
vt 0.3084 0.3182
vt 0.3471 0.3182
vt 0.2697 0.2700
vt 0.3859 0.2400
vt 0.4246 0.2400
vt 0.9276 0.2379
vt 0.9075 0.2379
vt 0.9075 0.0808
vt 0.9276 0.0808
vt 0.6125 0.3903
vt 0.6326 0.3903
vt 0.6326 0.4359
vt 0.6125 0.4359
vt 0.9075 0.3951
vt 0.8875 0.3951
vt 0.8875 0.2379
vt 0.9075 0.2379
vt 0.6125 0.4359
vt 0.5925 0.4359
vt 0.5925 0.3903
vt 0.6125 0.3903
vt 0.8875 0.3951
vt 0.8483 0.3951
vt 0.8483 0.2379
vt 0.8875 0.2379
vt 0.8483 0.0808
vt 0.8875 0.0808
vt 0.8875 0.2379
vt 0.8483 0.2379
vt 0.9276 0.3951
vt 0.9075 0.3951
vt 0.9075 0.2379
vt 0.9276 0.2379
vt 0.6526 0.4359
vt 0.6326 0.4359
vt 0.6326 0.3903
vt 0.6526 0.3903
vt 0.9075 0.2379
vt 0.8875 0.2379
vt 0.8875 0.0808
vt 0.9075 0.0808
vt 0.5724 0.3903
vt 0.5925 0.3903
vt 0.5925 0.4359
vt 0.5724 0.4359
vt 0.8483 0.2379
vt 0.8092 0.2379
vt 0.8092 0.0808
vt 0.8483 0.0808
vt 0.8092 0.2379
vt 0.8483 0.2379
vt 0.8483 0.3951
vt 0.8092 0.3951
vt 0.5825 0.5909
vt 0.9008 0.5909
vt 0.9008 0.9091
vt 0.5825 0.9091
vt 0.5825 0.5909
vt 0.9008 0.5909
vt 0.9008 0.9091
vt 0.5825 0.9091
vt 0.5825 0.5909
vt 0.9008 0.5909
vt 0.9008 0.9091
vt 0.5825 0.9091
vt 0.5825 0.5909
vt 0.9008 0.5909
vt 0.9008 0.9091
vt 0.5825 0.9091
vt 0.5825 0.5909
vt 0.9008 0.5909
vt 0.5825 0.9091
vt 0.5825 0.5909
vt 0.9008 0.5909
vt 0.9008 0.9091
vt 0.5825 0.9091
vt 0.9008 0.5909
vt 0.9008 0.9091
vt 0.5825 0.9091
vt 0.5825 0.5909
vt 0.9008 0.5909
vt 0.9008 0.9091
vt 0.5825 0.9091
vt 0.9008 0.9091
vt 0.5825 0.9091
vt 0.5825 0.5909
vt 0.9008 0.5909
vt 0.9008 0.9091
vt 0.5825 0.9091
vt 0.5825 0.5909
vt 0.9008 0.5909
vt 0.9008 0.9091
vt 0.5825 0.9091
vt 0.5825 0.5909
vt 0.9008 0.5909
vt 0.9008 0.9091
vt 0.5825 0.9091
vt 0.5825 0.5909
vt 0.9008 0.5909
vt 0.9008 0.9091
vt 0.5825 0.9091
vt 0.5825 0.5909
vt 0.9008 0.5909
vt 0.9008 0.9091
vt 0.5825 0.9091
vt 0.5825 0.5909
vt 0.9008 0.5909
vt 0.9008 0.9091
vt 0.5825 0.9091
vt 0.5825 0.5909
vt 0.9008 0.5909
vt 0.9008 0.9091
vt 0.5825 0.9091
vt 0.5825 0.5909
vt 0.9008 0.5909
vt 0.9008 0.9091
vt 0.5825 0.9091
vt 0.5825 0.5909
vt 0.9008 0.5909
vt 0.9008 0.9091
vt 0.5825 0.9091
vt 0.5825 0.5909
vt 0.9008 0.5909
vt 0.9008 0.9091
vt 0.5825 0.9091
vt 0.5825 0.5909
vt 0.9008 0.5909
vt 0.9008 0.9091
vt 0.5825 0.9091
vt 0.5825 0.5909
vt 0.9008 0.5909
vt 0.9008 0.9091
vt 0.5825 0.9091
vt 0.5825 0.5909
vt 0.9008 0.5909
vt 0.9008 0.9091
vt 0.5825 0.9091
vt 0.5825 0.5909
vt 0.9008 0.5909
vt 0.9008 0.9091
vt 0.5825 0.9091
vt 0.5825 0.5909
vt 0.9008 0.5909
vt 0.9008 0.9091
vt 0.5825 0.9091
vt 0.5825 0.5909
vt 0.9008 0.5909
vt 0.9008 0.9091
vt 0.5825 0.9091
vt 0.5825 0.5909
vt 0.9008 0.5909
vt 0.9008 0.9091
vt 0.5825 0.9091
vt 0.5825 0.5909
vt 0.9008 0.5909
vt 0.9008 0.9091
vt 0.5825 0.9091
vt 0.5825 0.5909
vt 0.9008 0.9091
vt 0.5825 0.9091
vt 0.9008 0.9091
vt 0.5825 0.9091
vt 0.5825 0.5909
vt 0.9008 0.9091
vt 0.5825 0.9091
vt 0.9008 0.5909
vt 0.9008 0.9091
vt 0.5825 0.9091
vt 0.9008 0.5909
vt 0.9008 0.9091
vt 0.5825 0.9091
vt 0.5825 0.5909
vt 0.9008 0.5909
vt 0.9008 0.9091
vt 0.5825 0.9091
vt 0.5825 0.5909
vt 0.9008 0.5909
vt 0.9008 0.9091
vt 0.5825 0.9091
vt 0.5825 0.5909
vt 0.9008 0.5909
vt 0.9008 0.9091
vt 0.5825 0.9091
vt 0.5825 0.5909
vt 0.9008 0.5909
vt 0.9008 0.9091
vt 0.5825 0.9091
vt 0.5825 0.5909
vt 0.9008 0.5909
vt 0.9008 0.9091
vt 0.5825 0.9091
vt 0.5825 0.5909
vt 0.9008 0.5909
vt 0.9008 0.9091
vt 0.5825 0.9091
vt 0.5825 0.5909
vt 0.9008 0.5909
vt 0.9008 0.9091
vt 0.5825 0.9091
vt 0.9008 0.9091
vt 0.5825 0.5909
vt 0.9008 0.5909
vt 0.9008 0.9091
vt 0.5825 0.9091
vt 0.9008 0.5909
vt 0.9008 0.9091
vt 0.5825 0.9091
vt 0.5825 0.5909
vt 0.9008 0.9091
vt 0.5825 0.9091
vt 0.5825 0.5909
vt 0.9008 0.5909
vt 0.5825 0.9091
vt 0.5825 0.5909
vt 0.9008 0.5909
vt 0.9008 0.9091
vt 0.5825 0.9091
vt 0.5825 0.5909
vt 0.9008 0.5909
vt 0.9008 0.9091
vt 0.5825 0.5909
vt 0.9008 0.5909
vt 0.9008 0.9091
vt 0.5825 0.5909
vt 0.9008 0.5909
vt 0.9008 0.9091
vt 0.5825 0.9091
vt 0.5825 0.5909
vt 0.5825 0.9091
vt 0.9008 0.5909
vt 0.9008 0.9091
vt 0.5825 0.5909
vt 0.5825 0.9091
vt 0.5825 0.5909
vt 0.9008 0.5909
vt 0.9008 0.9091
vt 0.5825 0.9091
vt 0.5826 0.8951
vt 0.7131 0.7571
vt 0.7247 0.7729
vt 0.8728 0.9091
vt 0.7474 0.7522
vt 0.8920 0.5909
vt 0.7266 0.7383
vt 0.5826 0.6059
vt 0.7270 0.7628
vt 0.7357 0.7543
vt 0.7417 0.9091
vt 0.8542 0.8625
vt 0.9008 0.7500
vt 0.8542 0.6375
vt 0.7417 0.5909
vt 0.6291 0.6375
vt 0.5825 0.7500
vt 0.6291 0.8625
vt 0.3369 0.5471
vt 0.4362 0.5471
vt 0.4362 0.8401
vt 0.3369 0.8401
vt 0.7279 0.7479
vt 0.7212 0.7557
vt 0.0388 0.8401
vt 0.1381 0.8401
vt 0.1381 0.9446
vt 0.0388 0.9446
vt 0.2375 0.5471
vt 0.3369 0.5471
vt 0.3369 0.8401
vt 0.2375 0.8401
vt 0.1381 0.8401
vt 0.0388 0.8401
vt 0.0388 0.5471
vt 0.1381 0.5471
vt 0.2375 0.8401
vt 0.1381 0.8401
vt 0.1381 0.5471
vt 0.2375 0.5471
vn 0.0000 0.0000 1.0000
vn -1.0000 0.0000 0.0000
vn -0.0000 0.0000 -1.0000
vn 1.0000 0.0000 0.0000
vn 0.0000 -1.0000 0.0000
vn 0.0000 1.0000 0.0000
vn -0.9336 0.3583 0.0000
vn 0.9336 0.3583 0.0000
vn 0.3583 -0.9336 0.0000
vn -0.3583 0.9336 0.0000
vn 0.3583 0.9336 0.0000
vn -0.3583 -0.9336 0.0000
vn 0.9336 -0.3583 0.0000
vn -0.9336 -0.3583 0.0000
vn 0.0000 0.3017 -0.9534
vn 0.5097 0.2596 -0.8202
vn 0.0000 0.3017 0.9534
vn 0.0000 -0.9534 0.3017
vn 0.0000 0.9534 0.3017
vn -0.3194 -0.2859 0.9035
vn 0.5097 -0.2596 0.8202
vn 0.5097 -0.8202 -0.2596
vn 0.5097 0.8202 0.2596
vn -0.3194 -0.9035 -0.2859
vn -0.3194 0.9035 0.2859
vn -0.3194 0.2859 -0.9035
vn 0.0663 -0.3010 0.9513
vn 0.0663 0.3010 -0.9513
vn 0.0663 0.9513 0.3010
vn 0.0663 -0.9513 -0.3010
vn 0.0663 -0.9513 0.3010
vn 0.0663 0.9513 -0.3010
vn -0.3194 0.9035 -0.2859
vn -0.3194 -0.9035 0.2859
vn 0.5097 0.8202 -0.2596
vn 0.5097 -0.8202 0.2596
vn 0.0000 0.9534 -0.3017
vn 0.0000 -0.9534 -0.3017
vn -0.6263 -0.7433 0.2352
vn -0.6263 -0.7433 -0.2352
vn 0.0663 -0.3010 -0.9513
vn 0.0663 0.3010 0.9513
vn -0.3194 -0.2859 -0.9035
vn 0.5097 0.2596 0.8202
vn -0.3194 0.2859 0.9035
vn 0.0000 -0.3017 0.9534
vn 0.5097 -0.2596 -0.8202
vn 0.0000 -0.3017 -0.9534
vn -0.6263 0.7433 -0.2352
vn -0.6263 -0.2352 0.7433
vn -0.6263 0.2352 -0.7433
vn -0.6263 -0.2352 -0.7433
vn -0.6263 0.7433 0.2352
vn -0.6263 0.2352 0.7433
vn -0.8643 -0.5030 0.0000
vn 0.8643 0.5030 0.0000
vn -0.5030 0.8643 -0.0000
usemtl Material
s off
f 1/1/1 2/2/1 4/3/1 3/4/1
f 3/5/2 4/6/2 8/7/2 7/8/2
f 7/9/3 8/10/3 6/11/3 5/12/3
f 5/13/4 6/14/4 2/15/4 1/16/4
f 3/17/5 7/18/5 5/19/5 1/20/5
f 8/21/6 4/22/6 2/23/6 6/24/6
f 21/25/7 10/26/7 12/27/7 22/28/7
f 26/29/3 18/30/3 16/31/3 23/32/3
f 23/33/8 16/34/8 14/35/8 24/36/8
f 25/37/1 20/38/1 10/39/1 21/40/1
f 17/41/9 15/42/9 13/43/9 19/44/9
f 18/45/10 12/46/10 10/47/10 20/48/10
f 16/49/11 18/45/11 20/48/11 14/50/11
f 11/51/12 17/41/12 19/44/12 9/52/12
f 24/53/1 14/54/1 20/38/1 25/37/1
f 22/55/3 12/56/3 18/30/3 26/29/3
f 11/57/3 22/55/3 26/29/3 17/58/3
f 13/59/1 24/53/1 25/37/1 19/60/1
f 19/60/1 25/37/1 21/40/1 9/61/1
f 15/62/13 23/33/13 24/36/13 13/63/13
f 17/58/3 26/29/3 23/32/3 15/64/3
f 9/65/14 21/25/14 22/28/14 11/66/14
f 39/67/7 28/68/7 30/69/7 40/70/7
f 44/71/3 36/72/3 34/73/3 41/74/3
f 41/75/8 34/76/8 32/77/8 42/78/8
f 43/79/1 38/80/1 28/81/1 39/82/1
f 35/83/9 33/84/9 31/85/9 37/86/9
f 36/87/10 30/88/10 28/89/10 38/90/10
f 34/91/11 36/87/11 38/90/11 32/92/11
f 29/93/12 35/83/12 37/86/12 27/94/12
f 42/95/1 32/96/1 38/80/1 43/79/1
f 40/97/3 30/98/3 36/72/3 44/71/3
f 29/99/3 40/97/3 44/71/3 35/100/3
f 31/101/1 42/95/1 43/79/1 37/102/1
f 37/102/1 43/79/1 39/82/1 27/103/1
f 33/104/13 41/75/13 42/78/13 31/105/13
f 35/100/3 44/71/3 41/74/3 33/106/3
f 27/107/14 39/67/14 40/70/14 29/108/14
f 45/109/3 47/110/3 48/111/3 46/112/3
f 47/113/2 51/114/2 52/115/2 48/116/2
f 51/117/1 49/118/1 50/119/1 52/120/1
f 49/121/4 45/122/4 46/123/4 50/124/4
f 47/125/5 45/126/5 49/127/5 51/128/5
f 52/129/6 50/130/6 46/131/6 48/132/6
f 65/133/7 66/134/7 56/135/7 54/136/7
f 70/137/1 67/138/1 60/139/1 62/140/1
f 67/141/8 68/142/8 58/143/8 60/144/8
f 69/145/3 65/146/3 54/147/3 64/148/3
f 61/149/9 63/150/9 57/151/9 59/152/9
f 62/153/10 64/154/10 54/155/10 56/156/10
f 60/157/11 58/158/11 64/154/11 62/153/11
f 55/159/12 53/160/12 63/150/12 61/149/12
f 68/161/3 69/145/3 64/148/3 58/162/3
f 66/163/1 70/137/1 62/140/1 56/164/1
f 55/165/1 61/166/1 70/137/1 66/163/1
f 57/167/3 63/168/3 69/145/3 68/161/3
f 63/168/3 53/169/3 65/146/3 69/145/3
f 59/170/13 57/171/13 68/142/13 67/141/13
f 61/166/1 59/172/1 67/138/1 70/137/1
f 53/173/14 55/174/14 66/134/14 65/133/14
f 83/175/7 84/176/7 74/177/7 72/178/7
f 88/179/1 85/180/1 78/181/1 80/182/1
f 85/183/8 86/184/8 76/185/8 78/186/8
f 87/187/3 83/188/3 72/189/3 82/190/3
f 79/191/9 81/192/9 75/193/9 77/194/9
f 80/195/10 82/196/10 72/197/10 74/198/10
f 78/199/11 76/200/11 82/196/11 80/195/11
f 73/201/12 71/202/12 81/192/12 79/191/12
f 86/203/3 87/187/3 82/190/3 76/204/3
f 84/205/1 88/179/1 80/182/1 74/206/1
f 73/207/1 79/208/1 88/179/1 84/205/1
f 75/209/3 81/210/3 87/187/3 86/203/3
f 81/210/3 71/211/3 83/188/3 87/187/3
f 77/212/13 75/213/13 86/184/13 85/183/13
f 79/208/1 77/214/1 85/180/1 88/179/1
f 71/215/14 73/216/14 84/176/14 83/175/14
f 89/217/2 90/218/2 92/219/2 91/220/2
f 91/221/3 92/222/3 96/223/3 95/224/3
f 95/225/4 96/226/4 94/227/4 93/228/4
f 93/229/1 94/230/1 90/231/1 89/232/1
f 91/233/5 95/234/5 93/235/5 89/236/5
f 96/237/6 92/238/6 90/239/6 94/240/6
f 97/241/2 98/242/2 100/243/2 99/244/2
f 99/245/3 100/246/3 104/247/3 103/248/3
f 103/249/4 104/250/4 102/251/4 101/252/4
f 101/253/1 102/254/1 98/255/1 97/256/1
f 99/257/5 103/258/5 101/259/5 97/260/5
f 104/261/6 100/262/6 98/263/6 102/264/6
f 142/265/15 108/266/15 112/267/15 143/268/15
f 143/269/16 112/270/16 113/271/16 145/272/16
f 144/273/17 110/274/17 106/275/17 141/276/17
f 129/277/18 131/278/18 109/279/18 105/280/18
f 132/281/19 130/282/19 106/275/19 110/283/19
f 146/284/20 115/285/20 119/286/20 148/287/20
f 144/273/21 109/288/21 115/289/21 146/290/21
f 131/291/22 111/292/22 114/293/22 133/294/22
f 132/281/23 110/274/23 116/295/23 134/296/23
f 136/297/4 120/298/4 124/299/4 138/300/4
f 133/301/24 114/302/24 118/303/24 135/304/24
f 134/305/25 116/306/25 120/307/25 136/308/25
f 145/309/26 113/310/26 117/311/26 147/312/26
f 149/313/27 121/314/27 125/315/27 151/316/27
f 147/317/4 117/318/4 121/319/4 149/320/4
f 148/321/4 119/322/4 123/323/4 150/324/4
f 135/325/4 118/326/4 122/327/4 137/328/4
f 150/329/28 123/330/28 127/331/28 152/332/28
f 137/333/29 122/334/29 126/335/29 139/336/29
f 138/337/30 124/338/30 128/339/30 140/340/30
f 121/341/31 138/342/31 140/343/31 125/344/31
f 123/345/32 137/346/32 139/347/32 127/348/32
f 119/349/4 135/350/4 137/351/4 123/352/4
f 113/353/33 134/354/33 136/355/33 117/356/33
f 115/357/34 133/358/34 135/359/34 119/360/34
f 117/361/4 136/362/4 138/363/4 121/364/4
f 112/365/35 132/366/35 134/367/35 113/368/35
f 109/369/36 131/278/36 133/370/36 115/371/36
f 112/365/37 108/266/37 130/372/37 132/373/37
f 107/374/38 111/292/38 131/375/38 129/376/38
f 129/277/39 105/377/39 154/378/39 153/379/39
f 107/374/40 129/380/40 153/381/40 160/382/40
f 124/383/41 150/384/41 152/385/41 128/386/41
f 120/387/4 148/388/4 150/389/4 124/390/4
f 118/391/4 147/392/4 149/393/4 122/394/4
f 122/395/42 149/396/42 151/397/42 126/398/42
f 114/399/43 145/400/43 147/401/43 118/402/43
f 110/403/44 144/404/44 146/405/44 116/406/44
f 116/407/45 146/408/45 148/409/45 120/410/45
f 109/369/46 144/404/46 141/411/46 105/280/46
f 111/412/47 143/413/47 145/414/47 114/415/47
f 107/374/48 142/416/48 143/417/48 111/418/48
f 130/419/49 108/266/49 158/420/49 157/421/49
f 161/422/2 157/423/2 158/420/2 159/424/2
f 155/425/2 156/426/2 157/427/2 161/428/2
f 154/429/2 155/430/2 161/431/2 153/379/2
f 153/432/2 161/433/2 159/434/2 160/382/2
f 105/435/50 141/436/50 155/437/50 154/438/50
f 108/439/51 142/416/51 159/434/51 158/440/51
f 142/265/52 107/441/52 160/442/52 159/424/52
f 106/443/53 130/282/53 157/427/53 156/444/53
f 141/445/54 106/446/54 156/447/54 155/448/54
f 162/449/55 163/450/55 165/451/55 164/452/55
f 164/452/3 165/451/3 169/453/3 168/454/3
f 168/454/56 169/453/56 167/455/56 166/456/56
f 166/456/1 167/455/1 163/450/1 162/449/1
f 169/453/57 165/451/57 171/457/57 172/458/57
f 140/459/4 128/460/4 152/461/4 127/462/4 139/463/4 126/464/4 151/465/4 125/466/4
f 173/467/56 172/468/56 176/469/56 177/470/56
f 167/455/57 169/453/57 172/458/57 173/471/57
f 165/451/57 163/450/57 170/472/57 171/457/57
f 163/450/57 167/455/57 173/471/57 170/472/57
f 176/473/57 175/474/57 174/475/57 177/476/57
f 171/477/55 170/478/55 174/479/55 175/480/55
f 170/481/1 173/482/1 177/483/1 174/484/1
f 172/485/3 171/486/3 175/487/3 176/488/3
